<?xml version="1.0" encoding="utf-8"?>
<!-- Generator: Adobe Illustrator 18.1.1, SVG Export Plug-In . SVG Version: 6.00 Build 0)  -->
<svg version="1.1" id="Calque_1" xmlns="http://www.w3.org/2000/svg" xmlns:xlink="http://www.w3.org/1999/xlink" x="0px" y="0px"
	 viewBox="0 0 477.3 80.8" enable-background="new 0 0 477.3 80.8" xml:space="preserve">
<g>
	<path d="M0,80.8V29.7h16.4c4,0,7.5,0.7,10.5,2c3,1.3,5.5,3.2,7.5,5.5c2,2.3,3.5,5,4.5,8.1c1,3.1,1.5,6.4,1.5,9.9
		c0,3.9-0.6,7.4-1.7,10.5c-1.1,3.1-2.7,5.8-4.8,8.1c-2.1,2.2-4.6,4-7.6,5.2c-3,1.2-6.3,1.8-9.9,1.8H0z M39,55.2
		c0-3.5-0.5-6.7-1.5-9.6c-1-2.9-2.4-5.5-4.4-7.6c-1.9-2.1-4.3-3.8-7.1-5c-2.8-1.2-6-1.8-9.6-1.8h-15v48.2h15c3.7,0,6.9-0.6,9.8-1.8
		c2.8-1.2,5.2-2.9,7.1-5.1c1.9-2.2,3.3-4.7,4.3-7.7C38.5,61.9,39,58.6,39,55.2z"/>
	<path d="M73.1,29.7h1.3l22.2,51.1H95l-8-18.3H60.3l-8,18.3h-1.6L73.1,29.7z M86.4,61.1L73.7,31.8L60.9,61.1H86.4z"/>
	<path d="M142.1,31.1h-19.6v49.7H121V31.1h-19.6v-1.4h40.6V31.1z"/>
	<path d="M169.1,29.7h1.3l22.2,51.1h-1.6l-8-18.3h-26.7l-8,18.3h-1.6L169.1,29.7z M182.4,61.1l-12.7-29.3L157,61.1H182.4z"/>
	<path d="M237,43.1c-0.3-0.3-0.9-0.8-1.8-1.4c-0.9-0.6-2-1.1-3.2-1.7c-1.3-0.6-2.7-1-4.1-1.4c-1.5-0.4-3-0.6-4.5-0.6
		c-2.7,0-4.8,0.5-6.1,1.5c-1.3,1-2,2.4-2,4.2c0,1.1,0.3,1.9,0.8,2.6c0.5,0.7,1.2,1.3,2.2,1.8c1,0.5,2.2,1,3.6,1.4
		c1.5,0.4,3.2,0.9,5.1,1.4c2.5,0.7,4.8,1.4,6.8,2.2c2,0.8,3.8,1.7,5.2,2.9c1.4,1.2,2.5,2.5,3.3,4.1c0.8,1.6,1.2,3.6,1.2,5.9
		c0,2.7-0.5,5.1-1.5,7c-1,1.9-2.4,3.5-4.2,4.7c-1.8,1.2-3.8,2.1-6,2.6c-2.3,0.6-4.7,0.8-7.2,0.8c-3.8,0-7.6-0.6-11.4-1.7
		c-3.7-1.2-7.1-2.8-10.1-4.9l4.4-8.6c0.4,0.4,1.2,1,2.3,1.7c1.1,0.7,2.5,1.4,4,2.1c1.5,0.7,3.2,1.3,5.1,1.8c1.9,0.5,3.8,0.7,5.8,0.7
		c5.5,0,8.2-1.8,8.2-5.3c0-1.1-0.3-2-0.9-2.8c-0.6-0.8-1.5-1.4-2.7-2c-1.2-0.6-2.5-1.1-4.2-1.6c-1.6-0.5-3.5-1-5.5-1.6
		c-2.4-0.7-4.6-1.4-6.4-2.2s-3.3-1.7-4.5-2.8c-1.2-1.1-2.1-2.3-2.7-3.7c-0.6-1.4-0.9-3.1-0.9-5.1c0-2.6,0.5-4.9,1.4-6.9
		c1-2,2.3-3.7,4-5c1.7-1.3,3.7-2.4,5.9-3.1c2.3-0.7,4.7-1,7.3-1c3.6,0,6.9,0.6,9.9,1.7c3,1.1,5.7,2.5,7.9,4L237,43.1z"/>
	<path d="M293.4,72.1v8.7h-35.5V29.7h34.8v8.7h-24.9v12.3h21.5v8.1h-21.5v13.3H293.4z"/>
	<path d="M308.4,80.8V29.7H331c2.4,0,4.5,0.5,6.5,1.5c2,1,3.7,2.3,5.1,3.9c1.4,1.6,2.6,3.4,3.4,5.5c0.8,2,1.2,4.1,1.2,6.2
		c0,3.3-0.8,6.3-2.5,9c-1.7,2.7-3.9,4.7-6.7,5.9l11.7,19.2h-11.2l-10.4-17.1h-9.8v17.1H308.4z M318.3,55h12.5c0.9,0,1.8-0.2,2.6-0.6
		s1.5-1,2.1-1.8c0.6-0.7,1-1.6,1.4-2.6c0.3-1,0.5-2.1,0.5-3.2c0-1.2-0.2-2.3-0.6-3.3c-0.4-1-0.9-1.9-1.5-2.6
		c-0.6-0.7-1.4-1.3-2.2-1.7c-0.8-0.4-1.7-0.6-2.6-0.6h-12V55z"/>
	<path d="M363.5,80.8V29.7h9.9v51.1H363.5z"/>
	<path d="M426.7,72.1v8.7h-35.5V29.7h34.8v8.7h-24.9v12.3h21.5v8.1h-21.5v13.3H426.7z"/>
	<path d="M471.1,43.1c-0.3-0.3-0.9-0.8-1.8-1.4c-0.9-0.6-2-1.1-3.2-1.7c-1.3-0.6-2.7-1-4.1-1.4c-1.5-0.4-3-0.6-4.5-0.6
		c-2.7,0-4.8,0.5-6.1,1.5c-1.3,1-2,2.4-2,4.2c0,1.1,0.3,1.9,0.8,2.6c0.5,0.7,1.2,1.3,2.2,1.8c1,0.5,2.2,1,3.6,1.4
		c1.5,0.4,3.2,0.9,5.1,1.4c2.5,0.7,4.8,1.4,6.8,2.2c2,0.8,3.8,1.7,5.2,2.9c1.4,1.2,2.5,2.5,3.3,4.1c0.8,1.6,1.2,3.6,1.2,5.9
		c0,2.7-0.5,5.1-1.5,7c-1,1.9-2.4,3.5-4.2,4.7c-1.8,1.2-3.8,2.1-6,2.6c-2.3,0.6-4.7,0.8-7.2,0.8c-3.8,0-7.6-0.6-11.4-1.7
		c-3.7-1.2-7.1-2.8-10.1-4.9l4.4-8.6c0.4,0.4,1.2,1,2.3,1.7c1.1,0.7,2.5,1.4,4,2.1c1.5,0.7,3.2,1.3,5.1,1.8c1.9,0.5,3.8,0.7,5.8,0.7
		c5.5,0,8.2-1.8,8.2-5.3c0-1.1-0.3-2-0.9-2.8c-0.6-0.8-1.5-1.4-2.7-2c-1.2-0.6-2.5-1.1-4.2-1.6c-1.6-0.5-3.5-1-5.5-1.6
		c-2.4-0.7-4.6-1.4-6.4-2.2c-1.8-0.8-3.3-1.7-4.5-2.8c-1.2-1.1-2.1-2.3-2.7-3.7c-0.6-1.4-0.9-3.1-0.9-5.1c0-2.6,0.5-4.9,1.4-6.9
		c1-2,2.3-3.7,4-5c1.7-1.3,3.7-2.4,5.9-3.1c2.3-0.7,4.7-1,7.3-1c3.6,0,6.9,0.6,9.9,1.7c3,1.1,5.7,2.5,7.9,4L471.1,43.1z"/>
</g>
<rect x="0.2" width="477.1" height="10"/>
</svg>
