<?xml version="1.0" encoding="utf-8"?>
<!-- Generator: Adobe Illustrator 18.1.1, SVG Export Plug-In . SVG Version: 6.00 Build 0)  -->
<svg version="1.1" id="Calque_1" xmlns="http://www.w3.org/2000/svg" xmlns:xlink="http://www.w3.org/1999/xlink" x="0px" y="0px"
	 viewBox="-767.8 -52.3 300 450" enable-background="new -767.8 -52.3 300 450" xml:space="preserve">
<g enable-background="new    ">
	<path fill="#E5E5E4" d="M-654.5,21c6.2,6.1,12.4,11.9,18.5,17.7c6.1,5.7,12.3,11.6,18.5,17.7c6.1-5.8,12.1-11.6,18-17.5
		c5.9-5.9,11.9-11.8,18-17.5c4,3.8,8.1,7.5,12.1,11.3c4,3.8,8.1,7.5,12.1,11.3c-6.1,6.1-12.1,12-18.1,17.9c-6,5.8-12,11.8-18.1,17.9
		c6.4,5.9,12.6,11.8,18.7,17.8c6.1,5.9,12.4,11.8,18.7,17.8c-4,4-8.2,8.1-12.3,12.1c-4.2,4-8.3,8.1-12.3,12.1
		c-6.2-6.1-12.4-12-18.5-17.9c-6.1-5.8-12.3-11.8-18.5-17.9c-6.4,6.1-12.5,12-18.5,17.9c-6,5.8-12.2,11.8-18.5,17.9
		c-4-3.9-8.1-7.7-12.1-11.4c-4-3.7-8.1-7.5-12.1-11.4c6.1-6.1,12.2-12.1,18.3-18.2c6.1-6.1,12.2-12.1,18.3-18.2
		c-6.2-5.9-12.4-11.8-18.6-17.5c-6.2-5.8-12.4-11.6-18.6-17.5c4.2-3.9,8.4-7.9,12.6-12C-662.8,28.9-658.7,24.9-654.5,21z"/>
</g>
<g>
	<path d="M-731.4,197.2h4.1l11.1,25.4h-4.7l-2.6-6.1h-11.9l-2.6,6.1h-4.5L-731.4,197.2z M-725,212.6l-4.4-10.1l-4.3,10.1H-725z"/>
	<path d="M-711.8,197.4h9.9c5.9,0,9.6,3.3,9.6,8.4v0.1c0,5.7-4.5,8.6-10.1,8.6h-5v8.1h-4.4V197.4z M-702.3,210.5
		c3.3,0,5.4-1.9,5.4-4.5v-0.1c0-3-2.1-4.5-5.4-4.5h-5.1v9.1H-702.3z"/>
	<path d="M-687.8,197.4h18.7v4h-14.3v6.6h12.6v4h-12.6v6.8h14.4v4h-18.9V197.4z"/>
	<path d="M-663.7,197.4h11.2c3.2,0,5.7,0.9,7.3,2.5c1.3,1.4,2.1,3.2,2.1,5.4v0.1c0,4.1-2.5,6.6-6,7.6l6.8,9.5h-5.2l-6.2-8.8h-0.1
		h-5.5v8.8h-4.4V197.4z M-652.8,209.9c3.2,0,5.2-1.7,5.2-4.2v-0.1c0-2.7-1.9-4.2-5.2-4.2h-6.4v8.5H-652.8z"/>
	<path d="M-631.3,227l2.8-4.2c-6-1.1-10.3-6.3-10.3-12.7V210c0-7.2,5.4-13,13-13c4.6,0,7.5,1.6,9.9,3.9l-2.8,3.3
		c-2-1.9-4.2-3.1-7.1-3.1c-4.8,0-8.3,4-8.3,8.9v0.1c0,4.9,3.5,9,8.3,9c3.1,0,5.1-1.3,7.2-3.3l2.8,2.9c-2.4,2.6-5.1,4.2-9.4,4.4
		l-2.4,5.5L-631.3,227z"/>
	<path d="M-611.5,211.9v-14.5h4.4v14.3c0,4.7,2.4,7.2,6.4,7.2c3.9,0,6.3-2.4,6.3-7v-14.5h4.4v14.3c0,7.5-4.2,11.3-10.8,11.3
		C-607.3,223-611.5,219.2-611.5,211.9z"/>
	<path d="M-568.9,197.4h4.1l13.5,17.4v-17.4h4.4v25.2h-3.7l-13.9-17.9v17.9h-4.4V197.4z"/>
	<path d="M-541.5,210.1L-541.5,210.1c0-7.2,5.5-13.1,13.2-13.1c7.7,0,13.1,5.9,13.1,13v0.1c0,7.1-5.5,13-13.2,13
		C-536.1,223-541.5,217.2-541.5,210.1z M-519.8,210.1L-519.8,210.1c0-5-3.6-9-8.6-9s-8.5,4-8.5,8.9v0.1c0,4.9,3.6,9,8.6,9
		S-519.8,215-519.8,210.1z"/>
	<path d="M-509.8,197.4h4.1l13.5,17.4v-17.4h4.4v25.2h-3.7l-13.9-17.9v17.9h-4.4V197.4z"/>
	<path d="M-740.3,245.4h9.4c7.9,0,13.4,5.4,13.4,12.5v0.1c0,7.1-5.5,12.6-13.4,12.6h-9.4V245.4z M-730.9,266.6
		c5.3,0,8.7-3.6,8.7-8.5V258c0-4.9-3.5-8.6-8.7-8.6h-5v17.1H-730.9z"/>
	<path d="M-708.6,245.4h4.4v25.2h-4.4V245.4z"/>
	<path d="M-695.9,266.9l2.7-3.2c2.4,2.1,4.8,3.3,8,3.3c2.7,0,4.5-1.3,4.5-3.2v-0.1c0-1.8-1-2.8-5.7-3.9c-5.4-1.3-8.4-2.9-8.4-7.5
		v-0.1c0-4.3,3.6-7.3,8.6-7.3c3.7,0,6.6,1.1,9.1,3.2l-2.4,3.3c-2.3-1.7-4.5-2.6-6.8-2.6c-2.6,0-4.1,1.3-4.1,3v0.1c0,1.9,1.2,2.8,6,4
		c5.3,1.3,8.1,3.2,8.1,7.4v0.1c0,4.7-3.7,7.5-9,7.5C-689.2,271-692.8,269.6-695.9,266.9z"/>
	<path d="M-667.9,245.4h9.9c5.9,0,9.6,3.3,9.6,8.4v0.1c0,5.7-4.5,8.6-10.1,8.6h-5v8.1h-4.4V245.4z M-658.3,258.5
		c3.3,0,5.4-1.9,5.4-4.5v-0.1c0-3-2.1-4.5-5.4-4.5h-5.1v9.1H-658.3z"/>
	<path d="M-641.7,258.1L-641.7,258.1c0-7.2,5.5-13.1,13.2-13.1c7.7,0,13.1,5.9,13.1,13v0.1c0,7.1-5.5,13-13.2,13
		C-636.3,271-641.7,265.2-641.7,258.1z M-620,258.1L-620,258.1c0-5-3.6-9-8.6-9s-8.5,4-8.5,8.9v0.1c0,4.9,3.6,9,8.6,9
		S-620,263-620,258.1z"/>
	<path d="M-606.7,245.4h4.1l13.5,17.4v-17.4h4.4v25.2h-3.7l-13.9-17.9v17.9h-4.4V245.4z"/>
	<path d="M-574.7,245.4h4.4v25.2h-4.4V245.4z"/>
	<path d="M-560.3,245.4h11.3c2.9,0,5.1,0.8,6.6,2.2c1.1,1.1,1.7,2.5,1.7,4.2v0.1c0,3-1.7,4.6-3.6,5.6c3,1,5,2.7,5,6.1v0.1
		c0,4.5-3.7,6.9-9.3,6.9h-11.7V245.4z M-549.9,256c2.8,0,4.8-1.1,4.8-3.4v-0.1c0-2-1.6-3.2-4.4-3.2h-6.4v6.7H-549.9z M-548.6,266.7
		c3,0,4.9-1.2,4.9-3.5v-0.1c0-2.1-1.7-3.4-5.2-3.4h-7v6.9H-548.6z"/>
	<path d="M-531.1,245.4h4.4v21.2h13.2v4h-17.7V245.4z"/>
	<path d="M-505.5,245.4h18.7v4h-14.3v6.6h12.6v4h-12.6v6.8h14.4v4h-18.9V245.4z"/>
</g>
</svg>
