<?xml version="1.0" encoding="utf-8"?>
<!-- Generator: Adobe Illustrator 18.1.1, SVG Export Plug-In . SVG Version: 6.00 Build 0)  -->
<svg version="1.1" id="Calque_1" xmlns="http://www.w3.org/2000/svg" xmlns:xlink="http://www.w3.org/1999/xlink" x="0px" y="0px"
	 viewBox="-456.8 311 1280 720" enable-background="new -456.8 311 1280 720" xml:space="preserve">
<g enable-background="new    ">
	<path fill="#E5E5E4" d="M147.5,527.4c6.2,6.1,12.4,11.9,18.5,17.7c6.1,5.7,12.3,11.6,18.5,17.7c6.1-5.8,12.1-11.6,18-17.5
		c5.9-5.9,11.9-11.8,18-17.5c4,3.8,8.1,7.5,12.1,11.3c4,3.8,8.1,7.5,12.1,11.3c-6.1,6.1-12.1,12-18.1,17.9c-6,5.8-12,11.8-18.1,17.9
		c6.4,5.9,12.6,11.8,18.7,17.8c6.1,5.9,12.4,11.8,18.7,17.8c-4,4-8.2,8.1-12.3,12.1c-4.2,4-8.3,8.1-12.3,12.1
		c-6.2-6.1-12.4-12-18.5-17.9S190.5,616,184.3,610c-6.4,6.1-12.5,12-18.5,17.9c-6,5.8-12.2,11.8-18.5,17.9c-4-3.9-8.1-7.7-12.1-11.4
		c-4-3.7-8.1-7.5-12.1-11.4c6.1-6.1,12.2-12.1,18.3-18.2c6.1-6.1,12.2-12.1,18.3-18.2c-6.2-5.9-12.4-11.8-18.6-17.5
		c-6.2-5.8-12.4-11.6-18.6-17.5c4.2-3.9,8.4-7.9,12.6-12C139.1,535.3,143.3,531.3,147.5,527.4z"/>
</g>
<g>
	<path d="M66.9,703.7H71L82.1,729h-4.7l-2.6-6.1H62.9l-2.6,6.1h-4.5L66.9,703.7z M73.2,719L68.9,709L64.6,719H73.2z"/>
	<path d="M86.4,703.8h9.9c5.9,0,9.6,3.3,9.6,8.4v0.1c0,5.7-4.5,8.6-10.1,8.6h-5v8.1h-4.4V703.8z M96,716.9c3.3,0,5.4-1.9,5.4-4.5
		v-0.1c0-3-2.1-4.5-5.4-4.5h-5.1v9.1H96z"/>
	<path d="M110.5,703.8h18.7v4h-14.3v6.6h12.6v4h-12.6v6.8h14.4v4h-18.9V703.8z"/>
	<path d="M134.6,703.8h11.2c3.2,0,5.7,0.9,7.3,2.5c1.3,1.4,2.1,3.2,2.1,5.4v0.1c0,4.1-2.5,6.6-6,7.6l6.8,9.5h-5.2l-6.2-8.8h-0.1H139
		v8.8h-4.4V703.8z M145.5,716.3c3.2,0,5.2-1.7,5.2-4.2V712c0-2.7-1.9-4.2-5.2-4.2H139v8.5H145.5z"/>
	<path d="M166.9,733.4l2.8-4.2c-6-1.1-10.3-6.3-10.3-12.7v-0.1c0-7.2,5.4-13,13-13c4.6,0,7.5,1.6,9.9,3.9l-2.8,3.3
		c-2-1.9-4.2-3.1-7.1-3.1c-4.8,0-8.3,4-8.3,8.9v0.1c0,4.9,3.5,9,8.3,9c3.1,0,5.1-1.3,7.2-3.3l2.8,2.9c-2.4,2.6-5.1,4.2-9.4,4.4
		l-2.4,5.5L166.9,733.4z"/>
	<path d="M186.8,718.3v-14.5h4.4v14.3c0,4.7,2.4,7.2,6.4,7.2c3.9,0,6.3-2.4,6.3-7v-14.5h4.4v14.3c0,7.5-4.2,11.3-10.8,11.3
		C190.9,729.4,186.8,725.7,186.8,718.3z"/>
	<path d="M229.4,703.8h4.1l13.5,17.4v-17.4h4.4V729h-3.7l-13.9-17.9V729h-4.4V703.8z"/>
	<path d="M256.7,716.5L256.7,716.5c0-7.2,5.5-13.1,13.2-13.1c7.7,0,13.1,5.9,13.1,13v0.1c0,7.1-5.5,13-13.2,13
		C262.1,729.5,256.7,723.6,256.7,716.5z M278.4,716.5L278.4,716.5c0-5-3.6-9-8.6-9c-5,0-8.5,4-8.5,8.9v0.1c0,4.9,3.6,9,8.6,9
		C274.9,725.4,278.4,721.4,278.4,716.5z"/>
	<path d="M288.4,703.8h4.1l13.5,17.4v-17.4h4.4V729h-3.7l-13.9-17.9V729h-4.4V703.8z"/>
	<path d="M58,751.8h9.4c7.9,0,13.4,5.4,13.4,12.5v0.1c0,7.1-5.5,12.6-13.4,12.6H58V751.8z M67.4,773c5.3,0,8.7-3.6,8.7-8.5v-0.1
		c0-4.9-3.5-8.6-8.7-8.6h-5V773H67.4z"/>
	<path d="M89.6,751.8h4.4V777h-4.4V751.8z"/>
	<path d="M102.4,773.4l2.7-3.2c2.4,2.1,4.8,3.3,8,3.3c2.7,0,4.5-1.3,4.5-3.2v-0.1c0-1.8-1-2.8-5.7-3.9c-5.4-1.3-8.4-2.9-8.4-7.5
		v-0.1c0-4.3,3.6-7.3,8.6-7.3c3.7,0,6.6,1.1,9.1,3.2l-2.4,3.3c-2.3-1.7-4.5-2.6-6.8-2.6c-2.6,0-4.1,1.3-4.1,3v0.1c0,1.9,1.2,2.8,6,4
		c5.3,1.3,8.1,3.2,8.1,7.4v0.1c0,4.7-3.7,7.5-9,7.5C109,777.4,105.4,776.1,102.4,773.4z"/>
	<path d="M130.4,751.8h9.9c5.9,0,9.6,3.3,9.6,8.4v0.1c0,5.7-4.5,8.6-10.1,8.6h-5v8.1h-4.4V751.8z M139.9,764.9
		c3.3,0,5.4-1.9,5.4-4.5v-0.1c0-3-2.1-4.5-5.4-4.5h-5.1v9.1H139.9z"/>
	<path d="M156.6,764.5L156.6,764.5c0-7.2,5.5-13.1,13.2-13.1c7.7,0,13.1,5.9,13.1,13v0.1c0,7.1-5.5,13-13.2,13
		C162,777.5,156.6,771.6,156.6,764.5z M178.3,764.5L178.3,764.5c0-5-3.6-9-8.6-9c-5,0-8.5,4-8.5,8.9v0.1c0,4.9,3.6,9,8.6,9
		C174.8,773.4,178.3,769.4,178.3,764.5z"/>
	<path d="M191.5,751.8h4.1l13.5,17.4v-17.4h4.4V777h-3.7l-13.9-17.9V777h-4.4V751.8z"/>
	<path d="M223.5,751.8h4.4V777h-4.4V751.8z"/>
	<path d="M237.9,751.8h11.3c2.9,0,5.1,0.8,6.6,2.2c1.1,1.1,1.7,2.5,1.7,4.2v0.1c0,3-1.7,4.6-3.6,5.6c3,1,5,2.7,5,6.1v0.1
		c0,4.5-3.7,6.9-9.3,6.9h-11.7V751.8z M248.3,762.5c2.8,0,4.8-1.1,4.8-3.4V759c0-2-1.6-3.2-4.4-3.2h-6.4v6.7H248.3z M249.6,773.1
		c3,0,4.9-1.2,4.9-3.5v-0.1c0-2.1-1.7-3.4-5.2-3.4h-7v6.9H249.6z"/>
	<path d="M267.2,751.8h4.4V773h13.2v4h-17.7V751.8z"/>
	<path d="M292.7,751.8h18.7v4h-14.3v6.6h12.6v4h-12.6v6.8h14.4v4h-18.9V751.8z"/>
</g>
</svg>
