<?xml version="1.0" encoding="utf-8"?>
<!-- Generator: Adobe Illustrator 16.0.0, SVG Export Plug-In . SVG Version: 6.00 Build 0)  -->
<!DOCTYPE svg PUBLIC "-//W3C//DTD SVG 1.1//EN" "http://www.w3.org/Graphics/SVG/1.1/DTD/svg11.dtd">
<svg version="1.1" id="Calque_1" xmlns="http://www.w3.org/2000/svg" xmlns:xlink="http://www.w3.org/1999/xlink" x="0px" y="0px"
	 width="814.5px" height="814.5px" viewBox="0 185.5 814.5 814.5" enable-background="new 0 185.5 814.5 814.5"
	 xml:space="preserve">
<g enable-background="new    ">
	<path fill="#E5E5E4" d="M325.978,404.9c13.777,13.556,27.556,26.444,41.111,39.333c13.556,12.667,27.333,25.778,41.111,39.334
		c13.556-12.89,26.889-25.779,40.001-38.89c13.11-13.111,26.443-26.222,40-38.889c8.889,8.445,18,16.667,26.889,25.111
		s18,16.667,26.889,25.111c-13.556,13.555-26.889,26.667-40.223,39.777c-13.333,12.89-26.666,26.223-40.222,39.779
		c14.222,13.11,27.999,26.221,41.556,39.555c13.555,13.111,27.555,26.223,41.555,39.556c-8.889,8.889-18.222,18-27.333,26.889
		c-9.333,8.889-18.444,18-27.333,26.889c-13.777-13.555-27.556-26.666-41.111-39.777c-13.556-12.889-27.333-26.222-41.11-39.778
		c-14.223,13.557-27.778,26.667-41.112,39.778c-13.333,12.889-27.111,26.223-41.111,39.777c-8.889-8.666-18-17.111-26.889-25.333
		c-8.889-8.222-18-16.667-26.889-25.333c13.556-13.556,27.111-26.89,40.667-40.444c13.556-13.556,27.111-26.889,40.667-40.445
		c-13.778-13.11-27.556-26.222-41.333-38.889c-13.778-12.889-27.556-25.777-41.333-38.889c9.333-8.667,18.667-17.555,28-26.667
		C307.533,422.456,316.644,413.566,325.978,404.9z"/>
</g>
<text transform="matrix(1 0 0 1 111.0439 740.5273)" font-family="'MyriadPro-Bold'" font-size="59.2262">IMAGE NOT AVAILABLE</text>
</svg>
