<?xml version="1.0" encoding="utf-8"?>
<!-- Generator: Adobe Illustrator 18.1.1, SVG Export Plug-In . SVG Version: 6.00 Build 0)  -->
<svg version="1.1" id="Calque_1" xmlns="http://www.w3.org/2000/svg" xmlns:xlink="http://www.w3.org/1999/xlink" x="0px" y="0px"
	 viewBox="0 0 75 42" enable-background="new 0 0 75 42" xml:space="preserve">
<g>
	<rect x="0.5" y="0.5" fill="#FAFAFA" width="74" height="41"/>
	<g>
		<path fill="#E2E2E1" d="M74,1v40H1V1H74 M75,0H0v42h75V0L75,0z"/>
	</g>
</g>
<g enable-background="new    ">
	<path fill="#E5E5E4" d="M27.4,5.3c1.8,1.7,3.6,3.4,5.3,5.1c1.8,1.6,3.5,3.3,5.3,5.1c1.7-1.7,3.5-3.3,5.2-5.1
		c1.7-1.7,3.4-3.4,5.2-5.1c1.2,1.1,2.3,2.2,3.5,3.2c1.2,1.1,2.3,2.2,3.5,3.2c-1.7,1.7-3.5,3.5-5.2,5.2c-1.7,1.7-3.5,3.4-5.2,5.1
		c1.8,1.7,3.6,3.4,5.4,5.1c1.8,1.7,3.6,3.4,5.4,5.1c-1.2,1.2-2.4,2.3-3.6,3.5s-2.4,2.3-3.6,3.5c-1.8-1.7-3.6-3.5-5.3-5.1
		s-3.5-3.4-5.3-5.2c-1.8,1.7-3.6,3.5-5.3,5.2c-1.7,1.7-3.5,3.4-5.3,5.1c-1.2-1.1-2.3-2.2-3.5-3.3c-1.2-1.1-2.3-2.2-3.5-3.3
		c1.7-1.7,3.5-3.5,5.3-5.2c1.8-1.7,3.5-3.5,5.3-5.2c-1.8-1.7-3.6-3.4-5.4-5.1c-1.8-1.7-3.6-3.3-5.4-5.1c1.2-1.1,2.4-2.3,3.6-3.5
		C25,7.6,26.2,6.5,27.4,5.3z"/>
</g>
<rect x="5.6" y="12.6" fill="none" width="63.9" height="18.4"/>
<g enable-background="new    ">
	<path d="M8.6,12.8h1l2.8,6.3h-1.2l-0.6-1.5h-3L7,19.2H5.8L8.6,12.8z M10.2,16.7l-1.1-2.5L8,16.7H10.2z"/>
	<path d="M13.5,12.9H16c1.5,0,2.4,0.8,2.4,2.1v0c0,1.4-1.1,2.2-2.5,2.2h-1.3v2h-1.1V12.9z M15.9,16.1c0.8,0,1.4-0.5,1.4-1.1v0
		c0-0.7-0.5-1.1-1.4-1.1h-1.3v2.3H15.9z"/>
	<path d="M19.5,12.9h4.7v1h-3.6v1.6h3.2v1h-3.2v1.7h3.6v1h-4.7V12.9z"/>
	<path d="M25.5,12.9h2.8c0.8,0,1.4,0.2,1.8,0.6c0.3,0.3,0.5,0.8,0.5,1.4v0c0,1-0.6,1.7-1.5,1.9l1.7,2.4h-1.3L28,17h0h-1.4v2.2h-1.1
		V12.9z M28.3,16c0.8,0,1.3-0.4,1.3-1.1v0c0-0.7-0.5-1-1.3-1h-1.6V16H28.3z"/>
	<path d="M33.6,20.2l0.7-1c-1.5-0.3-2.6-1.6-2.6-3.2v0c0-1.8,1.3-3.3,3.2-3.3c1.2,0,1.9,0.4,2.5,1l-0.7,0.8c-0.5-0.5-1-0.8-1.8-0.8
		c-1.2,0-2.1,1-2.1,2.2v0c0,1.2,0.9,2.2,2.1,2.2c0.8,0,1.3-0.3,1.8-0.8l0.7,0.7c-0.6,0.6-1.3,1.1-2.4,1.1l-0.6,1.4L33.6,20.2z"/>
	<path d="M38.6,16.5v-3.6h1.1v3.6c0,1.2,0.6,1.8,1.6,1.8c1,0,1.6-0.6,1.6-1.8v-3.6H44v3.6c0,1.9-1.1,2.8-2.7,2.8
		C39.6,19.3,38.6,18.3,38.6,16.5z"/>
</g>
<text transform="matrix(1 0 0 1 44.6687 19.1561)" font-family="'Gotham-Medium'" font-size="9"> </text>
<g enable-background="new    ">
	<path d="M48.4,12.9h1l3.4,4.4v-4.4h1.1v6.3h-0.9l-3.5-4.5v4.5h-1.1V12.9z"/>
	<path d="M55.2,16L55.2,16c0-1.8,1.4-3.3,3.3-3.3s3.3,1.5,3.3,3.2v0c0,1.8-1.4,3.3-3.3,3.3C56.6,19.3,55.2,17.8,55.2,16z M60.6,16
		L60.6,16c0-1.2-0.9-2.3-2.1-2.3c-1.3,0-2.1,1-2.1,2.2v0c0,1.2,0.9,2.2,2.1,2.2S60.6,17.2,60.6,16z"/>
	<path d="M63.1,12.9h1l3.4,4.4v-4.4h1.1v6.3h-0.9l-3.5-4.5v4.5h-1.1V12.9z"/>
</g>
<g enable-background="new    ">
	<path d="M6.4,23.7h2.4c2,0,3.3,1.4,3.3,3.1v0c0,1.8-1.4,3.2-3.3,3.2H6.4V23.7z M8.7,28.9c1.3,0,2.2-0.9,2.2-2.1v0
		c0-1.2-0.9-2.1-2.2-2.1H7.5v4.3H8.7z"/>
	<path d="M14.2,23.7h1.1V30h-1.1V23.7z"/>
	<path d="M17.2,29l0.7-0.8c0.6,0.5,1.2,0.8,2,0.8c0.7,0,1.1-0.3,1.1-0.8v0c0-0.5-0.3-0.7-1.4-1c-1.3-0.3-2.1-0.7-2.1-1.9v0
		c0-1.1,0.9-1.8,2.2-1.8c0.9,0,1.6,0.3,2.3,0.8l-0.6,0.8c-0.6-0.4-1.1-0.6-1.7-0.6c-0.6,0-1,0.3-1,0.7v0c0,0.5,0.3,0.7,1.5,1
		c1.3,0.3,2,0.8,2,1.8v0c0,1.2-0.9,1.9-2.3,1.9C18.9,30,18,29.7,17.2,29z"/>
	<path d="M24.1,23.7h2.5c1.5,0,2.4,0.8,2.4,2.1v0c0,1.4-1.1,2.2-2.5,2.2h-1.3v2h-1.1V23.7z M26.4,26.9c0.8,0,1.4-0.5,1.4-1.1v0
		c0-0.7-0.5-1.1-1.4-1.1h-1.3v2.3H26.4z"/>
	<path d="M30.5,26.8L30.5,26.8c0-1.8,1.4-3.3,3.3-3.3s3.3,1.5,3.3,3.2v0c0,1.8-1.4,3.3-3.3,3.3C31.8,30.1,30.5,28.6,30.5,26.8z
		 M35.9,26.8L35.9,26.8c0-1.2-0.9-2.3-2.1-2.3c-1.3,0-2.1,1-2.1,2.2v0c0,1.2,0.9,2.2,2.1,2.2C35,29,35.9,28,35.9,26.8z"/>
	<path d="M39.1,23.7h1l3.4,4.4v-4.4h1.1V30h-0.9l-3.5-4.5V30h-1.1V23.7z"/>
	<path d="M46.9,23.7H48V30h-1.1V23.7z"/>
	<path d="M50.4,23.7h2.8c0.7,0,1.3,0.2,1.6,0.6c0.3,0.3,0.4,0.6,0.4,1v0c0,0.8-0.4,1.2-0.9,1.4c0.7,0.3,1.3,0.7,1.3,1.5v0
		c0,1.1-0.9,1.7-2.3,1.7h-2.9V23.7z M53,26.3c0.7,0,1.2-0.3,1.2-0.9v0c0-0.5-0.4-0.8-1.1-0.8h-1.6v1.7H53z M53.3,29
		c0.8,0,1.2-0.3,1.2-0.9v0c0-0.5-0.4-0.8-1.3-0.8h-1.8V29H53.3z"/>
	<path d="M57.6,23.7h1.1v5.3H62v1h-4.4V23.7z"/>
	<path d="M63.8,23.7h4.7v1h-3.6v1.6h3.2v1h-3.2V29h3.6v1h-4.7V23.7z"/>
</g>
</svg>
