<?xml version="1.0" encoding="utf-8"?>
<!-- Generator: Adobe Illustrator 18.1.1, SVG Export Plug-In . SVG Version: 6.00 Build 0)  -->
<svg version="1.1" id="Calque_1" xmlns="http://www.w3.org/2000/svg" xmlns:xlink="http://www.w3.org/1999/xlink" x="0px" y="0px"
	 viewBox="407 582.6 25.6 25.5" enable-background="new 407 582.6 25.6 25.5" xml:space="preserve">
<g>
	<path d="M432.4,606.8l-6.6-6.5c1.7-1.9,2.8-4.4,2.8-7.1c0-5.9-4.8-10.6-10.8-10.6c-5.9,0-10.8,4.7-10.8,10.6
		c0,5.9,4.8,10.6,10.8,10.6c2.6,0,4.9-0.9,6.8-2.4l6.6,6.5c0.3,0.3,0.8,0.3,1.2,0C432.7,607.6,432.7,607.1,432.4,606.8L432.4,606.8z
		 M417.8,602.1c-5,0-9.1-4-9.1-9c0-5,4.1-9,9.1-9s9.1,4,9.1,9C426.9,598.1,422.8,602.1,417.8,602.1L417.8,602.1z"/>
</g>
</svg>
